<mxfile host="65bd71144e">
    <diagram id="wmTDlzOl6l-WB3ksQBVA" name="画面遷移図">
        <mxGraphModel dx="1364" dy="801" grid="1" gridSize="10" guides="1" tooltips="1" connect="1" arrows="1" fold="1" page="1" pageScale="1" pageWidth="827" pageHeight="2000" math="0" shadow="0">
            <root>
                <mxCell id="0"/>
                <mxCell id="1" parent="0"/>
                <mxCell id="4JndS8pK1OhVeTsbEq2Z-28" style="edgeStyle=none;html=1;entryX=0.5;entryY=0;entryDx=0;entryDy=0;" edge="1" parent="1" source="o6Ke99nzjvVpYqkrrdgY-1" target="4JndS8pK1OhVeTsbEq2Z-11">
                    <mxGeometry relative="1" as="geometry"/>
                </mxCell>
                <mxCell id="4JndS8pK1OhVeTsbEq2Z-29" value="ゲーム開始" style="edgeLabel;html=1;align=center;verticalAlign=middle;resizable=0;points=[];" vertex="1" connectable="0" parent="4JndS8pK1OhVeTsbEq2Z-28">
                    <mxGeometry x="-0.0497" y="-2" relative="1" as="geometry">
                        <mxPoint as="offset"/>
                    </mxGeometry>
                </mxCell>
                <mxCell id="o6Ke99nzjvVpYqkrrdgY-1" value="スタート画面" style="swimlane;fontStyle=0;childLayout=stackLayout;horizontal=1;startSize=30;horizontalStack=0;resizeParent=1;resizeParentMax=0;resizeLast=0;collapsible=1;marginBottom=0;whiteSpace=wrap;html=1;" parent="1" vertex="1">
                    <mxGeometry x="40" y="100" width="170" height="150" as="geometry"/>
                </mxCell>
                <mxCell id="o6Ke99nzjvVpYqkrrdgY-2" value="・タイトル" style="text;strokeColor=none;fillColor=none;align=left;verticalAlign=middle;spacingLeft=4;spacingRight=4;overflow=hidden;points=[[0,0.5],[1,0.5]];portConstraint=eastwest;rotatable=0;whiteSpace=wrap;html=1;" parent="o6Ke99nzjvVpYqkrrdgY-1" vertex="1">
                    <mxGeometry y="30" width="170" height="30" as="geometry"/>
                </mxCell>
                <mxCell id="o6Ke99nzjvVpYqkrrdgY-3" value="・名前を入力" style="text;strokeColor=none;fillColor=none;align=left;verticalAlign=middle;spacingLeft=4;spacingRight=4;overflow=hidden;points=[[0,0.5],[1,0.5]];portConstraint=eastwest;rotatable=0;whiteSpace=wrap;html=1;" parent="o6Ke99nzjvVpYqkrrdgY-1" vertex="1">
                    <mxGeometry y="60" width="170" height="30" as="geometry"/>
                </mxCell>
                <mxCell id="o6Ke99nzjvVpYqkrrdgY-4" value="・スタート(Enterキーで開始)" style="text;strokeColor=none;fillColor=none;align=left;verticalAlign=middle;spacingLeft=4;spacingRight=4;overflow=hidden;points=[[0,0.5],[1,0.5]];portConstraint=eastwest;rotatable=0;whiteSpace=wrap;html=1;" parent="o6Ke99nzjvVpYqkrrdgY-1" vertex="1">
                    <mxGeometry y="90" width="170" height="30" as="geometry"/>
                </mxCell>
                <mxCell id="4JndS8pK1OhVeTsbEq2Z-1" value="・使い方" style="text;strokeColor=none;fillColor=none;align=left;verticalAlign=middle;spacingLeft=4;spacingRight=4;overflow=hidden;points=[[0,0.5],[1,0.5]];portConstraint=eastwest;rotatable=0;whiteSpace=wrap;html=1;" vertex="1" parent="o6Ke99nzjvVpYqkrrdgY-1">
                    <mxGeometry y="120" width="170" height="30" as="geometry"/>
                </mxCell>
                <mxCell id="4JndS8pK1OhVeTsbEq2Z-39" style="edgeStyle=none;html=1;exitX=0.5;exitY=1;exitDx=0;exitDy=0;entryX=0.5;entryY=0;entryDx=0;entryDy=0;" edge="1" parent="1" source="o6Ke99nzjvVpYqkrrdgY-6" target="4JndS8pK1OhVeTsbEq2Z-15">
                    <mxGeometry relative="1" as="geometry"/>
                </mxCell>
                <mxCell id="o6Ke99nzjvVpYqkrrdgY-6" value="ゲーム画面（stage２)" style="swimlane;fontStyle=0;childLayout=stackLayout;horizontal=1;startSize=30;horizontalStack=0;resizeParent=1;resizeParentMax=0;resizeLast=0;collapsible=1;marginBottom=0;whiteSpace=wrap;html=1;" parent="1" vertex="1">
                    <mxGeometry x="40" y="784" width="170" height="120" as="geometry"/>
                </mxCell>
                <mxCell id="4JndS8pK1OhVeTsbEq2Z-5" value="・スコアとステージ表示" style="text;strokeColor=none;fillColor=none;align=left;verticalAlign=middle;spacingLeft=4;spacingRight=4;overflow=hidden;points=[[0,0.5],[1,0.5]];portConstraint=eastwest;rotatable=0;whiteSpace=wrap;html=1;" vertex="1" parent="o6Ke99nzjvVpYqkrrdgY-6">
                    <mxGeometry y="30" width="170" height="30" as="geometry"/>
                </mxCell>
                <mxCell id="4JndS8pK1OhVeTsbEq2Z-6" value="&lt;span style=&quot;color: rgb(0, 0, 0); font-family: Helvetica; font-size: 12px; font-style: normal; font-variant-ligatures: normal; font-variant-caps: normal; font-weight: 400; letter-spacing: normal; orphans: 2; text-align: left; text-indent: 0px; text-transform: none; widows: 2; word-spacing: 0px; -webkit-text-stroke-width: 0px; white-space: normal; background-color: rgb(251, 251, 251); text-decoration-thickness: initial; text-decoration-style: initial; text-decoration-color: initial; float: none; display: inline !important;&quot;&gt;・プレイヤー操作&lt;/span&gt;" style="text;strokeColor=none;fillColor=none;align=left;verticalAlign=middle;spacingLeft=4;spacingRight=4;overflow=hidden;points=[[0,0.5],[1,0.5]];portConstraint=eastwest;rotatable=0;whiteSpace=wrap;html=1;" vertex="1" parent="o6Ke99nzjvVpYqkrrdgY-6">
                    <mxGeometry y="60" width="170" height="30" as="geometry"/>
                </mxCell>
                <mxCell id="o6Ke99nzjvVpYqkrrdgY-8" value="・敵、弾処理" style="text;strokeColor=none;fillColor=none;align=left;verticalAlign=middle;spacingLeft=4;spacingRight=4;overflow=hidden;points=[[0,0.5],[1,0.5]];portConstraint=eastwest;rotatable=0;whiteSpace=wrap;html=1;" parent="o6Ke99nzjvVpYqkrrdgY-6" vertex="1">
                    <mxGeometry y="90" width="170" height="30" as="geometry"/>
                </mxCell>
                <mxCell id="KVS-stexUTWYTLnIJb_e-1" value="ぴよぴよ戦士２" style="rounded=0;whiteSpace=wrap;html=1;fillColor=#fad9d5;strokeColor=#ae4132;" parent="1" vertex="1">
                    <mxGeometry x="40" y="20" width="120" height="30" as="geometry"/>
                </mxCell>
                <mxCell id="IGOXldcsgXSA0QOgl_46-1" value="画面遷移図" style="rounded=0;whiteSpace=wrap;html=1;fillColor=#f5f5f5;strokeColor=none;fontColor=#333333;" parent="1" vertex="1">
                    <mxGeometry x="190" y="20" width="120" height="30" as="geometry"/>
                </mxCell>
                <mxCell id="4JndS8pK1OhVeTsbEq2Z-31" style="edgeStyle=none;html=1;exitX=0.5;exitY=1;exitDx=0;exitDy=0;entryX=0.5;entryY=0;entryDx=0;entryDy=0;" edge="1" parent="1" source="4JndS8pK1OhVeTsbEq2Z-2" target="4JndS8pK1OhVeTsbEq2Z-4">
                    <mxGeometry relative="1" as="geometry"/>
                </mxCell>
                <mxCell id="4JndS8pK1OhVeTsbEq2Z-32" value="True (勝)" style="edgeLabel;html=1;align=center;verticalAlign=middle;resizable=0;points=[];" vertex="1" connectable="0" parent="4JndS8pK1OhVeTsbEq2Z-31">
                    <mxGeometry x="-0.0715" relative="1" as="geometry">
                        <mxPoint as="offset"/>
                    </mxGeometry>
                </mxCell>
                <mxCell id="4JndS8pK1OhVeTsbEq2Z-35" style="edgeStyle=none;html=1;entryX=0;entryY=0.5;entryDx=0;entryDy=0;" edge="1" parent="1" source="4JndS8pK1OhVeTsbEq2Z-2" target="4JndS8pK1OhVeTsbEq2Z-8">
                    <mxGeometry relative="1" as="geometry"/>
                </mxCell>
                <mxCell id="4JndS8pK1OhVeTsbEq2Z-36" value="False (負)" style="edgeLabel;html=1;align=center;verticalAlign=middle;resizable=0;points=[];" vertex="1" connectable="0" parent="4JndS8pK1OhVeTsbEq2Z-35">
                    <mxGeometry x="-0.134" y="1" relative="1" as="geometry">
                        <mxPoint as="offset"/>
                    </mxGeometry>
                </mxCell>
                <mxCell id="4JndS8pK1OhVeTsbEq2Z-2" value="score&amp;gt;=10" style="rhombus;whiteSpace=wrap;html=1;" vertex="1" parent="1">
                    <mxGeometry x="70" y="456" width="110" height="80" as="geometry"/>
                </mxCell>
                <mxCell id="4JndS8pK1OhVeTsbEq2Z-47" style="edgeStyle=none;html=1;exitX=0.5;exitY=1;exitDx=0;exitDy=0;entryX=0.5;entryY=0;entryDx=0;entryDy=0;" edge="1" parent="1" source="4JndS8pK1OhVeTsbEq2Z-4" target="o6Ke99nzjvVpYqkrrdgY-6">
                    <mxGeometry relative="1" as="geometry"/>
                </mxCell>
                <mxCell id="4JndS8pK1OhVeTsbEq2Z-48" value="Yキーで続ける" style="edgeLabel;html=1;align=center;verticalAlign=middle;resizable=0;points=[];" vertex="1" connectable="0" parent="4JndS8pK1OhVeTsbEq2Z-47">
                    <mxGeometry x="-0.0174" relative="1" as="geometry">
                        <mxPoint as="offset"/>
                    </mxGeometry>
                </mxCell>
                <mxCell id="4JndS8pK1OhVeTsbEq2Z-59" style="edgeStyle=none;html=1;exitX=1;exitY=0.5;exitDx=0;exitDy=0;entryX=0;entryY=0.75;entryDx=0;entryDy=0;" edge="1" parent="1" source="4JndS8pK1OhVeTsbEq2Z-4" target="4JndS8pK1OhVeTsbEq2Z-10">
                    <mxGeometry relative="1" as="geometry">
                        <Array as="points">
                            <mxPoint x="400" y="657"/>
                        </Array>
                    </mxGeometry>
                </mxCell>
                <mxCell id="4JndS8pK1OhVeTsbEq2Z-61" value="Qキーで終了" style="edgeLabel;html=1;align=center;verticalAlign=middle;resizable=0;points=[];" vertex="1" connectable="0" parent="4JndS8pK1OhVeTsbEq2Z-59">
                    <mxGeometry x="0.4656" y="-1" relative="1" as="geometry">
                        <mxPoint as="offset"/>
                    </mxGeometry>
                </mxCell>
                <mxCell id="4JndS8pK1OhVeTsbEq2Z-4" value="&lt;font style=&quot;font-size: 14px; line-height: 140%;&quot;&gt;&lt;b&gt;stageclear！&lt;/b&gt;&lt;/font&gt;&lt;div style=&quot;line-height: 140%;&quot;&gt;&lt;font style=&quot;font-size: 11px;&quot;&gt;続けますか？&lt;br&gt;Yキーで続ける&lt;/font&gt;&lt;/div&gt;&lt;div style=&quot;line-height: 140%;&quot;&gt;&lt;font style=&quot;font-size: 11px;&quot;&gt;Qキーで終了&lt;/font&gt;&lt;/div&gt;" style="rhombus;whiteSpace=wrap;html=1;" vertex="1" parent="1">
                    <mxGeometry x="41.25" y="590" width="167.5" height="133" as="geometry"/>
                </mxCell>
                <mxCell id="4JndS8pK1OhVeTsbEq2Z-53" style="edgeStyle=none;html=1;exitX=1;exitY=0.5;exitDx=0;exitDy=0;entryX=1.005;entryY=-0.124;entryDx=0;entryDy=0;entryPerimeter=0;" edge="1" parent="1" source="4JndS8pK1OhVeTsbEq2Z-8" target="4JndS8pK1OhVeTsbEq2Z-14">
                    <mxGeometry relative="1" as="geometry">
                        <mxPoint x="360" y="330" as="targetPoint"/>
                        <mxPoint x="447.5" y="489.5" as="sourcePoint"/>
                        <Array as="points">
                            <mxPoint x="500" y="496"/>
                            <mxPoint x="500" y="390"/>
                        </Array>
                    </mxGeometry>
                </mxCell>
                <mxCell id="4JndS8pK1OhVeTsbEq2Z-74" value="Rキーでもう一度" style="edgeLabel;html=1;align=center;verticalAlign=middle;resizable=0;points=[];" vertex="1" connectable="0" parent="4JndS8pK1OhVeTsbEq2Z-53">
                    <mxGeometry x="0.5246" y="3" relative="1" as="geometry">
                        <mxPoint as="offset"/>
                    </mxGeometry>
                </mxCell>
                <mxCell id="4JndS8pK1OhVeTsbEq2Z-8" value="&lt;font style=&quot;font-size: 14px; line-height: 140%;&quot;&gt;&lt;b&gt;gameover！&lt;/b&gt;&lt;/font&gt;&lt;div style=&quot;line-height: 140%;&quot;&gt;&lt;font style=&quot;font-size: 11px;&quot;&gt;続けますか？&lt;br&gt;Rキーで再チャレンジ&lt;/font&gt;&lt;/div&gt;&lt;div style=&quot;line-height: 140%;&quot;&gt;&lt;font style=&quot;font-size: 11px;&quot;&gt;Qキーで終了&lt;/font&gt;&lt;/div&gt;" style="rhombus;whiteSpace=wrap;html=1;" vertex="1" parent="1">
                    <mxGeometry x="280" y="429.5" width="167.5" height="133" as="geometry"/>
                </mxCell>
                <mxCell id="4JndS8pK1OhVeTsbEq2Z-10" value="ゲーム終了" style="rounded=0;whiteSpace=wrap;html=1;" vertex="1" parent="1">
                    <mxGeometry x="570" y="530" width="120" height="80" as="geometry"/>
                </mxCell>
                <mxCell id="4JndS8pK1OhVeTsbEq2Z-30" style="edgeStyle=none;html=1;" edge="1" parent="1" source="4JndS8pK1OhVeTsbEq2Z-11" target="4JndS8pK1OhVeTsbEq2Z-2">
                    <mxGeometry relative="1" as="geometry"/>
                </mxCell>
                <mxCell id="4JndS8pK1OhVeTsbEq2Z-11" value="ゲーム画面（stage１)" style="swimlane;fontStyle=0;childLayout=stackLayout;horizontal=1;startSize=30;horizontalStack=0;resizeParent=1;resizeParentMax=0;resizeLast=0;collapsible=1;marginBottom=0;whiteSpace=wrap;html=1;" vertex="1" parent="1">
                    <mxGeometry x="40" y="303.5" width="170" height="120" as="geometry"/>
                </mxCell>
                <mxCell id="4JndS8pK1OhVeTsbEq2Z-12" value="・スコアとステージ表示" style="text;strokeColor=none;fillColor=none;align=left;verticalAlign=middle;spacingLeft=4;spacingRight=4;overflow=hidden;points=[[0,0.5],[1,0.5]];portConstraint=eastwest;rotatable=0;whiteSpace=wrap;html=1;" vertex="1" parent="4JndS8pK1OhVeTsbEq2Z-11">
                    <mxGeometry y="30" width="170" height="30" as="geometry"/>
                </mxCell>
                <mxCell id="4JndS8pK1OhVeTsbEq2Z-13" value="&lt;span style=&quot;color: rgb(0, 0, 0); font-family: Helvetica; font-size: 12px; font-style: normal; font-variant-ligatures: normal; font-variant-caps: normal; font-weight: 400; letter-spacing: normal; orphans: 2; text-align: left; text-indent: 0px; text-transform: none; widows: 2; word-spacing: 0px; -webkit-text-stroke-width: 0px; white-space: normal; background-color: rgb(251, 251, 251); text-decoration-thickness: initial; text-decoration-style: initial; text-decoration-color: initial; float: none; display: inline !important;&quot;&gt;・プレイヤー操作&lt;/span&gt;" style="text;strokeColor=none;fillColor=none;align=left;verticalAlign=middle;spacingLeft=4;spacingRight=4;overflow=hidden;points=[[0,0.5],[1,0.5]];portConstraint=eastwest;rotatable=0;whiteSpace=wrap;html=1;" vertex="1" parent="4JndS8pK1OhVeTsbEq2Z-11">
                    <mxGeometry y="60" width="170" height="30" as="geometry"/>
                </mxCell>
                <mxCell id="4JndS8pK1OhVeTsbEq2Z-14" value="・敵、弾処理" style="text;strokeColor=none;fillColor=none;align=left;verticalAlign=middle;spacingLeft=4;spacingRight=4;overflow=hidden;points=[[0,0.5],[1,0.5]];portConstraint=eastwest;rotatable=0;whiteSpace=wrap;html=1;" vertex="1" parent="4JndS8pK1OhVeTsbEq2Z-11">
                    <mxGeometry y="90" width="170" height="30" as="geometry"/>
                </mxCell>
                <mxCell id="4JndS8pK1OhVeTsbEq2Z-40" style="edgeStyle=none;html=1;exitX=0.5;exitY=1;exitDx=0;exitDy=0;entryX=0.5;entryY=0;entryDx=0;entryDy=0;" edge="1" parent="1" source="4JndS8pK1OhVeTsbEq2Z-15" target="4JndS8pK1OhVeTsbEq2Z-16">
                    <mxGeometry relative="1" as="geometry"/>
                </mxCell>
                <mxCell id="4JndS8pK1OhVeTsbEq2Z-41" value="&lt;span style=&quot;color: rgb(0, 0, 0);&quot;&gt;True (勝)&lt;/span&gt;" style="edgeLabel;html=1;align=center;verticalAlign=middle;resizable=0;points=[];" vertex="1" connectable="0" parent="4JndS8pK1OhVeTsbEq2Z-40">
                    <mxGeometry x="-0.1074" relative="1" as="geometry">
                        <mxPoint as="offset"/>
                    </mxGeometry>
                </mxCell>
                <mxCell id="4JndS8pK1OhVeTsbEq2Z-42" style="edgeStyle=none;html=1;exitX=1;exitY=0.5;exitDx=0;exitDy=0;entryX=0;entryY=0.5;entryDx=0;entryDy=0;" edge="1" parent="1" source="4JndS8pK1OhVeTsbEq2Z-15" target="4JndS8pK1OhVeTsbEq2Z-17">
                    <mxGeometry relative="1" as="geometry"/>
                </mxCell>
                <mxCell id="4JndS8pK1OhVeTsbEq2Z-43" value="&lt;span style=&quot;color: rgb(0, 0, 0);&quot;&gt;False (負)&lt;/span&gt;" style="edgeLabel;html=1;align=center;verticalAlign=middle;resizable=0;points=[];" vertex="1" connectable="0" parent="4JndS8pK1OhVeTsbEq2Z-42">
                    <mxGeometry x="-0.0714" y="-2" relative="1" as="geometry">
                        <mxPoint as="offset"/>
                    </mxGeometry>
                </mxCell>
                <mxCell id="4JndS8pK1OhVeTsbEq2Z-15" value="score&amp;gt;=10" style="rhombus;whiteSpace=wrap;html=1;" vertex="1" parent="1">
                    <mxGeometry x="70" y="930.5" width="110" height="80" as="geometry"/>
                </mxCell>
                <mxCell id="4JndS8pK1OhVeTsbEq2Z-44" style="edgeStyle=none;html=1;entryX=0.5;entryY=0;entryDx=0;entryDy=0;" edge="1" parent="1" source="4JndS8pK1OhVeTsbEq2Z-16" target="4JndS8pK1OhVeTsbEq2Z-18">
                    <mxGeometry relative="1" as="geometry"/>
                </mxCell>
                <mxCell id="4JndS8pK1OhVeTsbEq2Z-45" value="Yキーで続ける" style="edgeLabel;html=1;align=center;verticalAlign=middle;resizable=0;points=[];" vertex="1" connectable="0" parent="4JndS8pK1OhVeTsbEq2Z-44">
                    <mxGeometry x="-0.1686" y="-1" relative="1" as="geometry">
                        <mxPoint as="offset"/>
                    </mxGeometry>
                </mxCell>
                <mxCell id="4JndS8pK1OhVeTsbEq2Z-66" style="edgeStyle=none;html=1;exitX=1;exitY=0.5;exitDx=0;exitDy=0;entryX=0.5;entryY=1;entryDx=0;entryDy=0;" edge="1" parent="1" source="4JndS8pK1OhVeTsbEq2Z-16" target="4JndS8pK1OhVeTsbEq2Z-10">
                    <mxGeometry relative="1" as="geometry">
                        <Array as="points">
                            <mxPoint x="630" y="1137"/>
                        </Array>
                    </mxGeometry>
                </mxCell>
                <mxCell id="4JndS8pK1OhVeTsbEq2Z-70" value="Qキーで終了" style="edgeLabel;html=1;align=center;verticalAlign=middle;resizable=0;points=[];" vertex="1" connectable="0" parent="4JndS8pK1OhVeTsbEq2Z-66">
                    <mxGeometry x="-0.4102" y="-2" relative="1" as="geometry">
                        <mxPoint as="offset"/>
                    </mxGeometry>
                </mxCell>
                <mxCell id="4JndS8pK1OhVeTsbEq2Z-16" value="&lt;font style=&quot;font-size: 14px; line-height: 140%;&quot;&gt;&lt;b&gt;stageclear！&lt;/b&gt;&lt;/font&gt;&lt;div style=&quot;line-height: 140%;&quot;&gt;&lt;font style=&quot;font-size: 11px;&quot;&gt;続けますか？&lt;br&gt;Yキーで続ける&lt;/font&gt;&lt;/div&gt;&lt;div style=&quot;line-height: 140%;&quot;&gt;&lt;font style=&quot;font-size: 11px;&quot;&gt;Qキーで終了&lt;/font&gt;&lt;/div&gt;" style="rhombus;whiteSpace=wrap;html=1;" vertex="1" parent="1">
                    <mxGeometry x="41.25" y="1071" width="167.5" height="133" as="geometry"/>
                </mxCell>
                <mxCell id="4JndS8pK1OhVeTsbEq2Z-62" style="edgeStyle=none;html=1;exitX=1;exitY=0.5;exitDx=0;exitDy=0;entryX=1;entryY=0.883;entryDx=0;entryDy=0;entryPerimeter=0;" edge="1" parent="1" source="4JndS8pK1OhVeTsbEq2Z-17" target="4JndS8pK1OhVeTsbEq2Z-12">
                    <mxGeometry relative="1" as="geometry">
                        <mxPoint x="540" y="320" as="targetPoint"/>
                        <Array as="points">
                            <mxPoint x="530" y="970"/>
                            <mxPoint x="530" y="360"/>
                        </Array>
                    </mxGeometry>
                </mxCell>
                <mxCell id="4JndS8pK1OhVeTsbEq2Z-63" value="Rキーでもう一度" style="edgeLabel;html=1;align=center;verticalAlign=middle;resizable=0;points=[];" vertex="1" connectable="0" parent="4JndS8pK1OhVeTsbEq2Z-62">
                    <mxGeometry x="0.7905" relative="1" as="geometry">
                        <mxPoint as="offset"/>
                    </mxGeometry>
                </mxCell>
                <mxCell id="4JndS8pK1OhVeTsbEq2Z-64" style="edgeStyle=none;html=1;exitX=0.5;exitY=1;exitDx=0;exitDy=0;entryX=0.25;entryY=1;entryDx=0;entryDy=0;" edge="1" parent="1" source="4JndS8pK1OhVeTsbEq2Z-17" target="4JndS8pK1OhVeTsbEq2Z-10">
                    <mxGeometry relative="1" as="geometry">
                        <Array as="points">
                            <mxPoint x="600" y="1037"/>
                        </Array>
                    </mxGeometry>
                </mxCell>
                <mxCell id="4JndS8pK1OhVeTsbEq2Z-65" value="Qキーで終了" style="edgeLabel;html=1;align=center;verticalAlign=middle;resizable=0;points=[];" vertex="1" connectable="0" parent="4JndS8pK1OhVeTsbEq2Z-64">
                    <mxGeometry x="-0.6334" y="-2" relative="1" as="geometry">
                        <mxPoint as="offset"/>
                    </mxGeometry>
                </mxCell>
                <mxCell id="4JndS8pK1OhVeTsbEq2Z-17" value="&lt;font style=&quot;font-size: 14px; line-height: 140%;&quot;&gt;&lt;b&gt;gameover！&lt;/b&gt;&lt;/font&gt;&lt;div style=&quot;line-height: 140%;&quot;&gt;&lt;font style=&quot;font-size: 11px;&quot;&gt;続けますか？&lt;br&gt;Rキーで再チャレンジ&lt;/font&gt;&lt;/div&gt;&lt;div style=&quot;line-height: 140%;&quot;&gt;&lt;font style=&quot;font-size: 11px;&quot;&gt;Qキーで終了&lt;/font&gt;&lt;/div&gt;" style="rhombus;whiteSpace=wrap;html=1;" vertex="1" parent="1">
                    <mxGeometry x="280" y="904" width="167.5" height="133" as="geometry"/>
                </mxCell>
                <mxCell id="4JndS8pK1OhVeTsbEq2Z-46" style="edgeStyle=none;html=1;entryX=0.5;entryY=0;entryDx=0;entryDy=0;" edge="1" parent="1" source="4JndS8pK1OhVeTsbEq2Z-18" target="4JndS8pK1OhVeTsbEq2Z-22">
                    <mxGeometry relative="1" as="geometry"/>
                </mxCell>
                <mxCell id="4JndS8pK1OhVeTsbEq2Z-18" value="ゲーム画面（stage３)" style="swimlane;fontStyle=0;childLayout=stackLayout;horizontal=1;startSize=30;horizontalStack=0;resizeParent=1;resizeParentMax=0;resizeLast=0;collapsible=1;marginBottom=0;whiteSpace=wrap;html=1;" vertex="1" parent="1">
                    <mxGeometry x="41.25" y="1260" width="170" height="120" as="geometry"/>
                </mxCell>
                <mxCell id="4JndS8pK1OhVeTsbEq2Z-19" value="・スコアとステージ表示" style="text;strokeColor=none;fillColor=none;align=left;verticalAlign=middle;spacingLeft=4;spacingRight=4;overflow=hidden;points=[[0,0.5],[1,0.5]];portConstraint=eastwest;rotatable=0;whiteSpace=wrap;html=1;" vertex="1" parent="4JndS8pK1OhVeTsbEq2Z-18">
                    <mxGeometry y="30" width="170" height="30" as="geometry"/>
                </mxCell>
                <mxCell id="4JndS8pK1OhVeTsbEq2Z-20" value="&lt;span style=&quot;color: rgb(0, 0, 0); font-family: Helvetica; font-size: 12px; font-style: normal; font-variant-ligatures: normal; font-variant-caps: normal; font-weight: 400; letter-spacing: normal; orphans: 2; text-align: left; text-indent: 0px; text-transform: none; widows: 2; word-spacing: 0px; -webkit-text-stroke-width: 0px; white-space: normal; background-color: rgb(251, 251, 251); text-decoration-thickness: initial; text-decoration-style: initial; text-decoration-color: initial; float: none; display: inline !important;&quot;&gt;・プレイヤー操作&lt;/span&gt;" style="text;strokeColor=none;fillColor=none;align=left;verticalAlign=middle;spacingLeft=4;spacingRight=4;overflow=hidden;points=[[0,0.5],[1,0.5]];portConstraint=eastwest;rotatable=0;whiteSpace=wrap;html=1;" vertex="1" parent="4JndS8pK1OhVeTsbEq2Z-18">
                    <mxGeometry y="60" width="170" height="30" as="geometry"/>
                </mxCell>
                <mxCell id="4JndS8pK1OhVeTsbEq2Z-21" value="・敵、弾処理" style="text;strokeColor=none;fillColor=none;align=left;verticalAlign=middle;spacingLeft=4;spacingRight=4;overflow=hidden;points=[[0,0.5],[1,0.5]];portConstraint=eastwest;rotatable=0;whiteSpace=wrap;html=1;" vertex="1" parent="4JndS8pK1OhVeTsbEq2Z-18">
                    <mxGeometry y="90" width="170" height="30" as="geometry"/>
                </mxCell>
                <mxCell id="4JndS8pK1OhVeTsbEq2Z-49" style="edgeStyle=none;html=1;exitX=0.5;exitY=1;exitDx=0;exitDy=0;" edge="1" parent="1" source="4JndS8pK1OhVeTsbEq2Z-22" target="4JndS8pK1OhVeTsbEq2Z-24">
                    <mxGeometry relative="1" as="geometry"/>
                </mxCell>
                <mxCell id="4JndS8pK1OhVeTsbEq2Z-50" value="True (自動的に遷移)" style="edgeLabel;html=1;align=center;verticalAlign=middle;resizable=0;points=[];" vertex="1" connectable="0" parent="4JndS8pK1OhVeTsbEq2Z-49">
                    <mxGeometry x="-0.057" y="1" relative="1" as="geometry">
                        <mxPoint as="offset"/>
                    </mxGeometry>
                </mxCell>
                <mxCell id="4JndS8pK1OhVeTsbEq2Z-51" style="edgeStyle=none;html=1;exitX=1;exitY=0.5;exitDx=0;exitDy=0;entryX=0;entryY=0.5;entryDx=0;entryDy=0;" edge="1" parent="1" source="4JndS8pK1OhVeTsbEq2Z-22" target="4JndS8pK1OhVeTsbEq2Z-23">
                    <mxGeometry relative="1" as="geometry"/>
                </mxCell>
                <mxCell id="4JndS8pK1OhVeTsbEq2Z-52" value="False (負)" style="edgeLabel;html=1;align=center;verticalAlign=middle;resizable=0;points=[];" vertex="1" connectable="0" parent="4JndS8pK1OhVeTsbEq2Z-51">
                    <mxGeometry x="0.0424" relative="1" as="geometry">
                        <mxPoint as="offset"/>
                    </mxGeometry>
                </mxCell>
                <mxCell id="4JndS8pK1OhVeTsbEq2Z-22" value="score&amp;gt;=10" style="rhombus;whiteSpace=wrap;html=1;" vertex="1" parent="1">
                    <mxGeometry x="70" y="1410" width="110" height="80" as="geometry"/>
                </mxCell>
                <mxCell id="4JndS8pK1OhVeTsbEq2Z-71" style="edgeStyle=none;html=1;exitX=1;exitY=0.5;exitDx=0;exitDy=0;entryX=1.003;entryY=0.2;entryDx=0;entryDy=0;entryPerimeter=0;" edge="1" parent="1" source="4JndS8pK1OhVeTsbEq2Z-23" target="4JndS8pK1OhVeTsbEq2Z-11">
                    <mxGeometry relative="1" as="geometry">
                        <mxPoint x="760" y="320" as="targetPoint"/>
                        <Array as="points">
                            <mxPoint x="750" y="1450"/>
                            <mxPoint x="750" y="330"/>
                        </Array>
                    </mxGeometry>
                </mxCell>
                <mxCell id="4JndS8pK1OhVeTsbEq2Z-72" value="Rキーでもう一度" style="edgeLabel;html=1;align=center;verticalAlign=middle;resizable=0;points=[];" vertex="1" connectable="0" parent="4JndS8pK1OhVeTsbEq2Z-71">
                    <mxGeometry x="0.8961" y="2" relative="1" as="geometry">
                        <mxPoint as="offset"/>
                    </mxGeometry>
                </mxCell>
                <mxCell id="4JndS8pK1OhVeTsbEq2Z-75" style="edgeStyle=none;html=1;exitX=0.5;exitY=1;exitDx=0;exitDy=0;entryX=0.75;entryY=1;entryDx=0;entryDy=0;" edge="1" parent="1" source="4JndS8pK1OhVeTsbEq2Z-23" target="4JndS8pK1OhVeTsbEq2Z-10">
                    <mxGeometry relative="1" as="geometry">
                        <mxPoint x="710" y="880" as="targetPoint"/>
                        <Array as="points">
                            <mxPoint x="660" y="1517"/>
                            <mxPoint x="660" y="620"/>
                        </Array>
                    </mxGeometry>
                </mxCell>
                <mxCell id="4JndS8pK1OhVeTsbEq2Z-76" value="Qキーで終了" style="edgeLabel;html=1;align=center;verticalAlign=middle;resizable=0;points=[];" vertex="1" connectable="0" parent="4JndS8pK1OhVeTsbEq2Z-75">
                    <mxGeometry x="-0.7875" y="2" relative="1" as="geometry">
                        <mxPoint as="offset"/>
                    </mxGeometry>
                </mxCell>
                <mxCell id="4JndS8pK1OhVeTsbEq2Z-23" value="&lt;font style=&quot;font-size: 14px; line-height: 140%;&quot;&gt;&lt;b&gt;gameover！&lt;/b&gt;&lt;/font&gt;&lt;div style=&quot;line-height: 140%;&quot;&gt;&lt;font style=&quot;font-size: 11px;&quot;&gt;続けますか？&lt;br&gt;Rキーで再チャレンジ&lt;/font&gt;&lt;/div&gt;&lt;div style=&quot;line-height: 140%;&quot;&gt;&lt;font style=&quot;font-size: 11px;&quot;&gt;Qキーで終了&lt;/font&gt;&lt;/div&gt;" style="rhombus;whiteSpace=wrap;html=1;" vertex="1" parent="1">
                    <mxGeometry x="280" y="1383.5" width="167.5" height="133" as="geometry"/>
                </mxCell>
                <mxCell id="4JndS8pK1OhVeTsbEq2Z-24" value="&lt;b&gt;&lt;font style=&quot;font-size: 14px;&quot;&gt;gameclear！&lt;/font&gt;&lt;/b&gt;" style="swimlane;fontStyle=0;childLayout=stackLayout;horizontal=1;startSize=30;horizontalStack=0;resizeParent=1;resizeParentMax=0;resizeLast=0;collapsible=1;marginBottom=0;whiteSpace=wrap;html=1;" vertex="1" parent="1">
                    <mxGeometry x="40" y="1540" width="170" height="120" as="geometry"/>
                </mxCell>
                <mxCell id="4JndS8pK1OhVeTsbEq2Z-25" value="・スコアとステージ表示" style="text;strokeColor=none;fillColor=none;align=left;verticalAlign=middle;spacingLeft=4;spacingRight=4;overflow=hidden;points=[[0,0.5],[1,0.5]];portConstraint=eastwest;rotatable=0;whiteSpace=wrap;html=1;" vertex="1" parent="4JndS8pK1OhVeTsbEq2Z-24">
                    <mxGeometry y="30" width="170" height="30" as="geometry"/>
                </mxCell>
                <mxCell id="4JndS8pK1OhVeTsbEq2Z-26" value="・gameclear表示" style="text;strokeColor=none;fillColor=none;align=left;verticalAlign=middle;spacingLeft=4;spacingRight=4;overflow=hidden;points=[[0,0.5],[1,0.5]];portConstraint=eastwest;rotatable=0;whiteSpace=wrap;html=1;" vertex="1" parent="4JndS8pK1OhVeTsbEq2Z-24">
                    <mxGeometry y="60" width="170" height="30" as="geometry"/>
                </mxCell>
                <mxCell id="4JndS8pK1OhVeTsbEq2Z-27" value="・timeスコア表示（上位５位)" style="text;strokeColor=none;fillColor=none;align=left;verticalAlign=middle;spacingLeft=4;spacingRight=4;overflow=hidden;points=[[0,0.5],[1,0.5]];portConstraint=eastwest;rotatable=0;whiteSpace=wrap;html=1;" vertex="1" parent="4JndS8pK1OhVeTsbEq2Z-24">
                    <mxGeometry y="90" width="170" height="30" as="geometry"/>
                </mxCell>
                <mxCell id="4JndS8pK1OhVeTsbEq2Z-56" style="edgeStyle=none;html=1;exitX=0.5;exitY=1;exitDx=0;exitDy=0;entryX=-0.005;entryY=0.421;entryDx=0;entryDy=0;entryPerimeter=0;" edge="1" parent="1" source="4JndS8pK1OhVeTsbEq2Z-8" target="4JndS8pK1OhVeTsbEq2Z-10">
                    <mxGeometry relative="1" as="geometry"/>
                </mxCell>
                <mxCell id="4JndS8pK1OhVeTsbEq2Z-58" value="Qキーで終了" style="edgeLabel;html=1;align=center;verticalAlign=middle;resizable=0;points=[];" vertex="1" connectable="0" parent="4JndS8pK1OhVeTsbEq2Z-56">
                    <mxGeometry x="-0.1415" y="-1" relative="1" as="geometry">
                        <mxPoint as="offset"/>
                    </mxGeometry>
                </mxCell>
            </root>
        </mxGraphModel>
    </diagram>
</mxfile>